<svg width="23" height="22" viewBox="0 0 23 22" fill="none" xmlns="http://www.w3.org/2000/svg">
<g clip-path="url(#clip0_116_330)">
<path d="M22.5128 5.43497L22.5403 5.61464C22.2743 4.67139 21.5559 3.94355 20.643 3.67864L20.6237 3.67405C18.9071 3.20839 11.9992 3.20839 11.9992 3.20839C11.9992 3.20839 5.10883 3.19922 3.37476 3.67405C2.44442 3.94355 1.7251 4.67139 1.46362 5.59539L1.45903 5.61464C0.817701 8.96139 0.813113 12.9828 1.48747 16.5661L1.45903 16.3846C1.7251 17.3278 2.4435 18.0556 3.35641 18.3206L3.37568 18.3251C5.09048 18.7917 12.0001 18.7917 12.0001 18.7917C12.0001 18.7917 18.8896 18.7917 20.6246 18.3251C21.5559 18.0556 22.2752 17.3278 22.5367 16.4038L22.5413 16.3846C22.833 14.8281 23 13.0369 23 11.2072C23 11.1403 23 11.0725 22.9991 11.0046C23 10.9423 23 10.8681 23 10.7938C23 8.96322 22.833 7.17205 22.5128 5.43497ZM9.7954 14.3468V7.66155L15.5444 11.0092L9.7954 14.3468Z" fill="white"/>
</g>
<defs>
<clipPath id="clip0_116_330">
<rect width="22.0199" height="22" fill="white" transform="translate(0.980103)"/>
</clipPath>
</defs>
</svg>
